<?xml version="1.0" encoding="UTF-8"?>
<svg xmlns="http://www.w3.org/2000/svg" viewBox="0 0 591.84 200"><defs><style>.cls-1{fill:none;}</style></defs><g id="Hintergrund_weiß"><rect class="cls-1" y="0" width="591.84" height="200"/></g><g id="Logo"><g><polygon points="76.59 145.14 90.64 145.14 90.64 109.73 119.79 109.73 119.79 97.87 90.64 97.87 90.64 72.43 122.27 72.43 122.27 60.51 76.59 60.51 76.59 145.14"/><path d="M156.83,60.51h-24.43v84.63h23.43c14.56,0,26.16-3.96,34.82-11.89,8.66-7.93,12.98-18.42,12.98-31.49,0-27.5-15.6-41.25-46.8-41.25Zm23.81,64.62c-5.49,5.43-13.17,8.14-23.05,8.14h-11.21v-60.85h11.74c20.5,0,30.75,9.9,30.75,29.69,0,9.92-2.74,17.59-8.23,23.02Z"/><polygon points="268.03 60.51 207 60.51 207 72.43 249.97 72.43 203.4 138.71 203.4 138.71 204.89 145.14 268.97 145.14 268.97 133.28 223.06 133.28 269.44 66.64 268.03 60.51"/><polygon points="40.15 54.88 111.92 38.31 115.18 52.47 119.3 52.47 114.92 33.5 35.34 51.87 53.72 131.45 68.55 128.02 68.55 128.02 68.55 128.02 68.55 123.91 56.72 126.64 40.15 54.88"/><polygon points="311.6 134.25 318.2 134.25 310.9 144.02 310.9 145.14 322.22 145.14 322.22 142.8 315.1 142.8 322.24 133.16 322.24 131.91 311.6 131.91 311.6 134.25"/><path d="M330.15,131.6c-1.81,0-3.32,.65-4.54,1.94-1.22,1.3-1.83,2.97-1.83,5.03,0,2.18,.55,3.87,1.66,5.07,1.11,1.2,2.63,1.8,4.58,1.8s3.57-.38,4.78-1.14v-2.42c-1.18,.84-2.48,1.27-3.89,1.27-1.26,0-2.25-.33-2.97-.99-.72-.66-1.1-1.61-1.13-2.83h9.02v-1.15c0-2.07-.5-3.68-1.49-4.85-.99-1.16-2.39-1.74-4.2-1.74Zm-3.33,5.62c.14-1.02,.51-1.84,1.1-2.47,.6-.63,1.33-.94,2.19-.94s1.57,.3,2.07,.9,.75,1.44,.76,2.51h-6.12Z"/><path d="M346.11,131.6c-1.87,0-3.3,.84-4.29,2.51h-.05v-2.2h-3.01v13.23h3.01v-7.55c0-1.04,.3-1.91,.89-2.59,.59-.68,1.35-1.03,2.26-1.03,1.75,0,2.62,1.24,2.62,3.71v7.45h3v-8.09c0-1.77-.38-3.12-1.14-4.05-.76-.93-1.86-1.4-3.29-1.4Z"/><path d="M357.86,127.99l-3,.85v3.06h-2.21v2.35h2.21v7.48c0,2.46,1.28,3.7,3.85,3.7,.96,0,1.73-.15,2.31-.44v-2.38c-.37,.29-.81,.44-1.32,.44-.66,0-1.14-.17-1.42-.5-.28-.34-.43-.9-.43-1.68v-6.61h3.17v-2.35h-3.17v-3.92Z"/><path d="M367.98,132.46c-.61,.52-1.06,1.25-1.35,2.18h-.05v-2.73h-3v13.23h3v-6.33c0-1.38,.3-2.47,.89-3.27,.59-.8,1.33-1.2,2.22-1.2,.68,0,1.2,.14,1.56,.43v-2.84c-.28-.16-.7-.25-1.24-.25-.75,0-1.43,.26-2.04,.78Z"/><path d="M382.15,139.52c0,1.06-.29,1.92-.86,2.57-.57,.65-1.3,.98-2.19,.98-1.83,0-2.75-1.19-2.75-3.57v-7.6h-3v7.91c0,3.76,1.56,5.63,4.69,5.63,1.83,0,3.19-.8,4.06-2.4h.05v2.09h3v-13.23h-3v7.61Z"/><path d="M404.29,131.6c-1.95,0-3.41,.91-4.39,2.74-.25-.82-.72-1.48-1.4-1.98s-1.48-.76-2.4-.76c-1.83,0-3.22,.8-4.17,2.4h-.05v-2.09h-3v13.23h3v-7.16c0-1.18,.26-2.14,.78-2.88,.52-.74,1.19-1.11,2-1.11,1.74,0,2.61,1.23,2.61,3.7v7.45h3.01v-7.16c0-1.09,.27-2.03,.82-2.82,.55-.78,1.21-1.18,2-1.18,.93,0,1.59,.31,1.98,.93s.59,1.62,.59,3.01v7.21h3v-8.15c0-3.59-1.46-5.39-4.37-5.39Z"/><polygon points="314.36 104.31 320.75 104.31 320.75 101.71 314.36 101.71 314.36 96.15 321.29 96.15 321.29 93.54 311.29 93.54 311.29 112.06 314.36 112.06 314.36 104.31"/><path d="M330.23,98.52c-2.15,0-3.86,.62-5.14,1.87-1.27,1.25-1.91,2.98-1.91,5.21,0,2.04,.61,3.68,1.83,4.92,1.22,1.24,2.85,1.85,4.89,1.85s3.77-.64,5.02-1.91c1.25-1.27,1.87-2.96,1.87-5.07s-.58-3.84-1.73-5.05c-1.15-1.21-2.76-1.82-4.83-1.82Zm2.54,10.3c-.63,.78-1.54,1.18-2.72,1.18s-2.08-.4-2.77-1.2c-.69-.8-1.03-1.89-1.03-3.27s.34-2.57,1.02-3.39c.68-.82,1.61-1.23,2.78-1.23s2.09,.4,2.72,1.19,.95,1.92,.95,3.37-.32,2.56-.95,3.35Z"/><path d="M339.8,98.83v13.23h3v-6.33c0-1.38,.3-2.47,.89-3.27,.59-.8,1.34-1.2,2.22-1.2,.68,0,1.2,.14,1.56,.43v-2.84c-.28-.16-.7-.25-1.24-.25-.75,0-1.43,.26-2.03,.78s-1.06,1.25-1.35,2.18h-.05v-2.73h-3Z"/><path d="M350.96,99.53c-.51,.33-.91,.74-1.21,1.23-.3,.49-.45,1.05-.45,1.69,0,.52,.07,.97,.22,1.36,.15,.39,.36,.73,.65,1.04s.65,.58,1.09,.82,.92,.47,1.47,.68c.44,.16,.84,.31,1.2,.44,.36,.13,.67,.28,.93,.44,.26,.16,.47,.35,.63,.56,.16,.21,.23,.47,.23,.77,0,1.07-.9,1.6-2.71,1.6-1.35,0-2.59-.43-3.71-1.28v2.78c1.06,.48,2.31,.72,3.76,.72,.75,0,1.46-.08,2.14-.24,.68-.16,1.27-.4,1.79-.73s.93-.74,1.24-1.24,.47-1.09,.47-1.76c0-.55-.09-1.03-.26-1.43-.17-.4-.42-.75-.74-1.06-.32-.31-.7-.58-1.16-.82-.45-.24-.96-.48-1.53-.71-.43-.15-.81-.28-1.14-.41-.33-.12-.62-.26-.85-.41-.24-.15-.42-.32-.54-.52s-.18-.44-.18-.72c0-.23,.06-.45,.18-.64,.12-.19,.29-.36,.5-.5,.21-.14,.48-.25,.78-.32,.31-.08,.65-.12,1.03-.12,1.21,0,2.27,.32,3.2,.96v-2.62c-.96-.37-2.06-.56-3.28-.56-.69,0-1.36,.08-2,.25-.65,.17-1.22,.42-1.73,.75Z"/><path d="M371.06,111.46v-2.61c-.96,.77-1.97,1.15-3.05,1.15-1.28,0-2.31-.4-3.07-1.19s-1.14-1.87-1.14-3.24,.4-2.51,1.21-3.37,1.85-1.29,3.11-1.29c1.04,0,2.02,.34,2.95,1.03v-2.79c-.92-.42-1.99-.63-3.19-.63-2.17,0-3.9,.66-5.2,1.98-1.3,1.32-1.94,3.07-1.94,5.25,0,1.95,.6,3.55,1.81,4.77,1.21,1.23,2.79,1.84,4.75,1.84,1.45,0,2.7-.31,3.76-.92Z"/><path d="M381.45,98.52c-1.86,0-3.29,.84-4.29,2.51h-.05v-8.55h-3.01v19.59h3.01v-7.12c0-1.18,.3-2.15,.9-2.91s1.34-1.14,2.22-1.14c1.75,0,2.62,1.31,2.62,3.93v7.24h3v-8.15c0-3.59-1.47-5.39-4.41-5.39Z"/><path d="M393.93,112.37c1.83,0,3.19-.8,4.06-2.4h.05v2.09h3v-13.23h-3v7.61c0,1.06-.29,1.92-.86,2.57-.57,.65-1.3,.98-2.19,.98-1.83,0-2.75-1.19-2.75-3.57v-7.6h-3v7.91c0,3.76,1.56,5.63,4.69,5.63Z"/><path d="M412.12,98.52c-1.87,0-3.3,.84-4.29,2.51h-.05v-2.2h-3.01v13.23h3.01v-7.55c0-1.04,.3-1.91,.89-2.59,.59-.68,1.35-1.03,2.26-1.03,1.75,0,2.62,1.24,2.62,3.71v7.45h3v-8.09c0-1.77-.38-3.12-1.14-4.05-.76-.93-1.86-1.4-3.29-1.4Z"/><path d="M429.31,100.67h-.05c-.84-1.43-2.14-2.14-3.89-2.14-1.85,0-3.31,.66-4.37,1.99-1.06,1.33-1.59,3.11-1.59,5.36,0,1.98,.49,3.56,1.48,4.74,.99,1.18,2.28,1.76,3.9,1.76,1.99,0,3.48-.84,4.47-2.53h.05v1.45c0,3.09-1.57,4.64-4.72,4.64-1.3,0-2.67-.41-4.12-1.24v2.74c1.28,.58,2.79,.87,4.51,.87,4.88,0,7.32-2.43,7.32-7.29v-12.17h-3v1.83Zm.03,5.34c0,1.16-.32,2.12-.97,2.86-.65,.75-1.49,1.12-2.52,1.12s-1.83-.39-2.45-1.17c-.62-.78-.92-1.82-.92-3.12,0-1.51,.32-2.68,.96-3.52s1.53-1.26,2.67-1.26c.92,0,1.69,.33,2.31,.99,.62,.66,.92,1.45,.92,2.38v1.72Z"/><path d="M443.86,105.92c-.32-.31-.7-.58-1.16-.82-.45-.24-.96-.48-1.53-.71-.43-.15-.81-.28-1.14-.41-.33-.12-.62-.26-.85-.41-.24-.15-.42-.32-.54-.52s-.18-.44-.18-.72c0-.23,.06-.45,.18-.64,.12-.19,.29-.36,.5-.5,.22-.14,.48-.25,.78-.32,.31-.08,.65-.12,1.03-.12,1.21,0,2.27,.32,3.2,.96v-2.62c-.96-.37-2.06-.56-3.28-.56-.69,0-1.36,.08-2,.25-.65,.17-1.22,.42-1.73,.75-.51,.33-.91,.74-1.21,1.23-.3,.49-.45,1.05-.45,1.69,0,.52,.07,.97,.22,1.36,.15,.39,.36,.73,.65,1.04,.29,.31,.65,.58,1.09,.82,.43,.24,.92,.47,1.47,.68,.44,.16,.84,.31,1.2,.44,.36,.13,.67,.28,.93,.44,.26,.16,.47,.35,.63,.56,.16,.21,.23,.47,.23,.77,0,1.07-.9,1.6-2.71,1.6-1.35,0-2.59-.43-3.71-1.28v2.78c1.06,.48,2.31,.72,3.76,.72,.75,0,1.46-.08,2.14-.24s1.27-.4,1.79-.73,.93-.74,1.24-1.24,.47-1.09,.47-1.76c0-.55-.09-1.03-.26-1.43-.17-.4-.42-.75-.74-1.06Z"/><path d="M456.82,100.67h-.05c-.81-1.43-2.11-2.14-3.89-2.14s-3.24,.66-4.32,1.98c-1.08,1.32-1.62,3.07-1.62,5.26,0,2.04,.49,3.65,1.47,4.84,.98,1.18,2.28,1.78,3.91,1.78,2.01,0,3.49-.85,4.46-2.56h.05v2.25h3v-19.59h-3v8.19Zm.04,5.35c0,1.15-.32,2.09-.96,2.85s-1.47,1.13-2.49,1.13-1.87-.39-2.49-1.17c-.62-.78-.92-1.84-.92-3.18,0-1.48,.32-2.64,.96-3.48,.64-.84,1.52-1.25,2.64-1.25,.95,0,1.73,.33,2.34,.98,.61,.65,.92,1.45,.92,2.39v1.73Z"/><path d="M468.82,98.52c-1.83,0-3.44,.41-4.83,1.24v2.62c1.27-1.09,2.69-1.63,4.26-1.63,1.79,0,2.69,.94,2.69,2.83l-3.93,.56c-2.88,.41-4.32,1.87-4.32,4.37,0,1.16,.37,2.1,1.11,2.8,.74,.71,1.75,1.06,3.06,1.06,1.77,0,3.11-.79,4.02-2.38h.05v2.07h2.91v-8.6c0-3.29-1.67-4.94-5.01-4.94Zm2.12,8.19c0,.97-.3,1.78-.9,2.42s-1.35,.96-2.27,.96c-.67,0-1.21-.18-1.61-.54s-.6-.82-.6-1.38c0-.77,.22-1.3,.65-1.61,.43-.31,1.08-.51,1.94-.63l2.78-.39v1.15Z"/><path d="M481.19,94.92l-3,.85v3.06h-2.21v2.35h2.21v7.48c0,2.46,1.28,3.7,3.85,3.7,.96,0,1.73-.15,2.31-.44v-2.38c-.37,.29-.81,.44-1.32,.44-.66,0-1.14-.17-1.42-.5-.28-.34-.43-.9-.43-1.68v-6.61h3.17v-2.35h-3.17v-3.92Z"/><path d="M492.38,98.52c-1.81,0-3.32,.65-4.54,1.94-1.22,1.3-1.83,2.97-1.83,5.03,0,2.18,.55,3.87,1.66,5.07,1.11,1.2,2.63,1.8,4.58,1.8s3.57-.38,4.78-1.14v-2.42c-1.18,.84-2.48,1.27-3.89,1.27-1.26,0-2.25-.33-2.96-.99-.72-.66-1.1-1.61-1.13-2.83h9.02v-1.15c0-2.07-.5-3.68-1.49-4.85-.99-1.16-2.39-1.74-4.2-1.74Zm-3.33,5.62c.14-1.02,.51-1.84,1.11-2.47,.6-.63,1.33-.94,2.19-.94s1.57,.3,2.07,.9,.75,1.44,.76,2.51h-6.12Z"/><path d="M508.35,98.52c-1.87,0-3.3,.84-4.29,2.51h-.05v-2.2h-3.01v13.23h3.01v-7.55c0-1.04,.3-1.91,.89-2.59,.59-.68,1.35-1.03,2.26-1.03,1.75,0,2.62,1.24,2.62,3.71v7.45h3v-8.09c0-1.77-.38-3.12-1.14-4.05-.76-.93-1.86-1.4-3.29-1.4Z"/><polygon points="520.81 103.73 516.24 103.73 516.24 105.94 518.93 105.94 523.29 105.94 523.29 103.73 520.81 103.73"/><polygon points="314.46 67.43 314.46 60.5 311.29 60.5 311.29 72.37 311.29 79.03 314.46 79.03 314.46 67.43"/><path d="M323.98,58.82c.43,0,.8-.15,1.11-.44s.47-.65,.47-1.07-.16-.76-.48-1.05c-.32-.29-.7-.43-1.14-.43s-.81,.14-1.12,.43c-.31,.28-.46,.64-.46,1.06s.16,.77,.48,1.07c.32,.3,.7,.45,1.15,.45Z"/><path d="M329.35,58.82c.46,0,.84-.15,1.14-.44,.3-.29,.45-.65,.45-1.07s-.16-.76-.47-1.05c-.31-.29-.7-.43-1.16-.43-.43,0-.8,.14-1.1,.43-.3,.28-.45,.64-.45,1.06s.16,.8,.47,1.09c.31,.28,.69,.43,1.12,.43Z"/><path d="M326.57,79.34c2.72,0,4.9-.88,6.52-2.64,1.63-1.76,2.44-4.15,2.44-7.17,0-2.78-.79-5.03-2.38-6.76-1.59-1.72-3.68-2.58-6.29-2.58-2.81,0-5.03,.89-6.67,2.66-1.64,1.77-2.45,4.15-2.45,7.13,0,2.77,.8,5.03,2.41,6.76,1.61,1.73,3.74,2.6,6.41,2.6Zm-4-14.55c1.06-1.27,2.44-1.9,4.14-1.9s3.12,.6,4.11,1.81,1.49,2.92,1.49,5.13-.51,3.83-1.54,5.03c-1.02,1.2-2.42,1.8-4.2,1.8-1.67,0-3.02-.63-4.06-1.89-1.03-1.26-1.55-2.92-1.55-4.97s.53-3.73,1.6-5Z"/><path d="M341.91,71.51h1.24c.39,0,.74,.05,1.05,.14,.31,.1,.6,.25,.86,.45,.26,.21,.52,.47,.78,.8,.25,.32,.51,.71,.78,1.17l2.96,4.96h3.59l-3.29-5.21c-.27-.4-.51-.76-.73-1.07-.22-.31-.44-.58-.67-.82s-.46-.48-.71-.7c-.25-.23-.54-.44-.88-.63v-.05c.63-.16,1.19-.4,1.7-.7,.5-.3,.93-.67,1.29-1.09,.36-.43,.63-.91,.83-1.46,.19-.55,.29-1.15,.29-1.8,0-.84-.15-1.57-.46-2.19-.31-.62-.73-1.15-1.27-1.56-.54-.42-1.18-.73-1.91-.94-.73-.21-1.53-.31-2.4-.31h-6.1v18.53h3.06v-7.52Zm0-8.51h2.58c1.05,0,1.86,.25,2.42,.75,.56,.5,.84,1.19,.84,2.08,0,.49-.08,.94-.25,1.33-.16,.4-.39,.73-.68,1.01-.29,.28-.64,.49-1.04,.63-.4,.15-.84,.22-1.31,.22h-2.56v-6.02Z"/></g></g></svg>